<?xml version="1.0" standalone="no"?>
<!DOCTYPE svg PUBLIC "-//W3C//DTD SVG 20010904//EN"
 "http://www.w3.org/TR/2001/REC-SVG-20010904/DTD/svg10.dtd">
<svg version="1.0" xmlns="http://www.w3.org/2000/svg"
 width="262.000000pt" height="205.000000pt" viewBox="0 0 262.000000 205.000000"
 preserveAspectRatio="xMidYMid meet">

<g transform="translate(0.000000,205.000000) scale(0.100000,-0.100000)"
fill="#008da9" stroke="none">
<path d="M465 2027 l-50 -12 -3 -50 c-2 -28 6 -113 18 -190 53 -357 55 -362
129 -436 63 -64 101 -79 197 -79 58 0 62 2 66 25 3 16 0 29 -9 33 -10 6 -13
24 -11 67 l3 59 85 17 c47 9 99 20 117 24 29 7 33 5 39 -19 7 -29 -10 -78 -33
-97 -8 -7 -49 -23 -91 -35 l-77 -23 72 6 c83 7 111 0 93 -22 -6 -7 -24 -15
-38 -17 -15 -2 54 -6 153 -10 105 -4 186 -3 197 3 9 5 20 26 24 46 8 43 -8 77
-123 251 -83 126 -225 281 -319 348 -148 106 -297 143 -439 111z m33 -32 c4
-20 -15 -36 -35 -28 -17 6 -17 40 0 46 19 8 32 2 35 -18z m9 -61 c4 -10 -1
-22 -12 -30 -24 -18 -33 -10 -27 21 5 28 29 34 39 9z m163 6 c25 -13 16 -50
-11 -43 -12 3 -19 14 -19 29 0 27 3 28 30 14z m190 -29 c18 -34 12 -51 -17
-51 -16 0 -35 5 -43 10 -12 7 -11 13 10 34 28 31 36 32 50 7z m-342 -43 c4
-19 -26 -51 -39 -43 -13 9 -11 39 3 53 15 15 32 10 36 -10z m250 -9 c63 -20
31 -41 -48 -32 -45 5 -50 8 -50 30 0 22 3 24 33 18 17 -4 47 -11 65 -16z
m-237 -55 c11 -13 11 -20 -1 -42 -18 -31 -31 -32 -47 -2 -22 44 18 80 48 44z
m437 -11 c30 -25 19 -69 -22 -90 -36 -18 -46 -31 -39 -50 3 -7 1 -13 -5 -13
-11 0 -52 61 -52 77 0 15 70 93 85 93 7 0 22 -8 33 -17z m-198 -7 c0 -12 -47
-36 -71 -36 -5 0 -9 11 -9 25 0 23 4 25 40 25 28 0 40 -4 40 -14z m-215 -106
c-8 -32 -30 -54 -44 -46 -15 9 -14 79 1 94 19 19 51 -16 43 -48z m261 15 c34
-22 21 -35 -36 -35 -48 0 -60 9 -60 47 0 12 8 14 36 10 20 -3 47 -13 60 -22z
m286 -22 c26 -23 23 -37 -16 -67 -19 -14 -36 -36 -38 -48 -5 -33 -28 -32 -70
3 -55 45 -50 64 25 99 74 34 75 35 99 13z m-239 -54 c42 -11 48 -26 15 -34
-122 -27 -128 -26 -128 23 0 19 5 22 38 22 20 0 54 -5 75 -11z m-313 -28 c14
-27 13 -37 -6 -56 -12 -11 -20 -13 -29 -5 -12 10 -11 28 1 68 5 18 22 15 34
-7z m410 -46 c17 -9 30 -20 30 -25 0 -5 -26 -17 -57 -25 -32 -9 -71 -21 -87
-26 -45 -14 -54 -11 -61 21 -10 44 -10 44 37 57 61 16 104 15 138 -2z m-390
-55 c15 -28 9 -75 -10 -75 -8 0 -18 14 -23 32 -16 54 10 86 33 43z m60 -135
c0 -13 3 -31 7 -40 5 -15 3 -16 -15 -6 -35 19 -57 58 -42 76 17 21 50 1 50
-30z"/>
<path d="M1396 1457 c-13 -9 -20 -33 -25 -78 -4 -35 -16 -90 -25 -122 -10 -33
-16 -75 -14 -95 3 -21 -1 -55 -9 -77 -48 -134 -69 -339 -37 -352 8 -3 22 1 29
8 25 26 73 163 95 273 11 60 26 119 32 130 7 12 15 64 19 116 4 52 11 116 15
142 6 45 5 48 -20 58 -35 13 -39 13 -60 -3z"/>
<path d="M1809 1370 c-75 -9 -215 -45 -276 -71 -73 -31 -66 -108 15 -161 21
-15 68 -53 102 -85 35 -32 61 -50 57 -41 -12 33 12 28 47 -9 l36 -38 -30 55
c-31 57 -37 98 -20 131 11 19 40 27 40 10 0 -5 25 -44 56 -87 l55 -77 -18 -35
c-10 -19 -25 -37 -33 -40 -40 -16 -39 -29 3 -70 61 -58 99 -74 152 -66 39 5
52 15 100 69 30 35 55 66 55 70 0 3 30 43 66 88 80 98 90 118 75 143 -9 17
-10 18 -11 2 0 -10 -6 -18 -14 -18 -7 0 -16 -9 -19 -21 -3 -12 -10 -18 -16
-14 -16 9 -13 35 4 41 8 4 15 12 15 19 0 8 7 15 16 17 25 5 -39 85 -100 126
-84 56 -218 80 -357 62z m42 -77 c31 -73 34 -100 13 -107 -11 -3 -32 -2 -48 2
-27 7 -28 10 -31 80 -3 70 -3 72 21 72 20 0 29 -9 45 -47z m100 37 c15 -9 19
-22 19 -68 0 -55 -1 -58 -31 -69 -30 -12 -31 -11 -24 14 3 14 1 38 -5 53 -8
18 -8 34 -1 53 12 30 14 31 42 17z m115 -4 c3 -8 4 -24 2 -35 -3 -20 -3 -20
-28 -1 -20 15 -22 20 -11 34 17 20 30 20 37 2z m34 -96 c26 -23 31 -33 22 -42
-9 -9 -19 -5 -42 17 -28 27 -40 56 -22 55 4 -1 23 -14 42 -30z m66 -7 c-3 -8
-6 -17 -6 -20 0 -3 -6 0 -14 7 -18 14 -10 41 10 33 9 -3 13 -12 10 -20z m-92
-32 c16 -17 13 -51 -5 -51 -11 0 -29 34 -29 54 0 21 13 20 34 -3z m-50 -41
c19 -19 15 -40 -9 -40 -14 0 -55 46 -55 62 0 13 42 -1 64 -22z m-173 10 c4 0
27 -25 50 -56 39 -53 40 -56 23 -75 -9 -10 -20 -19 -24 -19 -10 0 -90 133 -90
149 0 8 6 11 16 7 9 -3 20 -6 25 -6z m100 -29 c38 -34 42 -40 30 -55 -20 -24
-26 -21 -60 32 -48 76 -38 84 30 23z m269 -42 c0 -11 -6 -27 -14 -35 -8 -7
-16 -18 -18 -23 -1 -5 -10 -11 -18 -13 -8 -2 -21 -15 -29 -30 -18 -36 -31 -36
-31 1 0 25 29 68 30 45 1 -5 8 3 16 19 8 15 19 27 24 27 5 0 12 9 15 20 8 25
25 17 25 -11z m-110 -144 c0 -11 -24 -55 -31 -55 -11 0 -19 28 -13 45 5 13 44
22 44 10z m-50 -56 c0 -20 -21 -49 -35 -49 -18 0 -20 31 -3 48 15 15 38 16 38
1z m-65 -49 c9 -15 -14 -40 -36 -40 -22 0 -23 4 -7 30 14 22 33 26 43 10z"/>
<path d="M848 1263 c7 -3 16 -2 19 1 4 3 -2 6 -13 5 -11 0 -14 -3 -6 -6z"/>
<path d="M898 1232 c-59 -31 -173 -125 -157 -130 43 -14 60 -53 36 -85 -11
-16 -15 -14 -44 24 l-32 41 -15 -31 c-9 -16 -16 -44 -16 -61 0 -16 -9 -47 -20
-67 -26 -48 -25 -56 5 -89 15 -17 25 -39 25 -58 0 -23 10 -40 40 -67 29 -26
40 -45 40 -65 0 -19 12 -40 36 -65 l36 -37 -17 -103 c-9 -57 -19 -115 -22
-129 -9 -39 11 -12 31 42 21 58 75 108 117 108 39 0 102 -32 129 -67 17 -22
23 -25 31 -13 5 8 7 26 4 40 -3 14 -8 46 -11 73 -6 39 -4 47 9 47 9 0 21 -9
27 -19 12 -24 66 -37 85 -21 12 10 14 43 13 164 -2 171 8 232 58 353 38 92 41
122 17 164 -30 50 -72 62 -228 67 -124 3 -144 1 -177 -16z m-157 -292 c13 -7
19 -21 19 -45 0 -48 -13 -51 -45 -9 -37 49 -23 80 26 54z m32 -131 c29 -16 37
-28 37 -60 0 -38 -9 -41 -42 -14 -16 14 -33 25 -38 25 -16 0 -19 30 -4 45 18
18 19 18 47 4z m77 -139 c21 -11 37 -67 23 -81 -11 -11 -93 47 -93 65 0 27 35
35 70 16z m91 -130 c10 -6 19 -21 19 -34 0 -22 -5 -24 -50 -28 -44 -3 -50 -1
-50 16 0 23 28 56 47 56 8 0 23 -5 34 -10z m131 -97 c21 -26 0 -24 -46 4 -59
36 -64 64 -5 31 22 -12 45 -28 51 -35z"/>
<path d="M1463 1098 c-28 -13 -33 -34 -33 -144 0 -112 -21 -229 -61 -335 -28
-79 -36 -133 -21 -155 15 -23 50 -34 77 -24 37 14 43 -11 16 -66 -25 -52 -27
-80 -6 -88 8 -3 15 -1 15 4 0 13 71 13 104 0 38 -14 78 -83 97 -168 l17 -77 1
127 c1 127 1 128 26 134 14 3 31 18 38 33 7 15 26 30 47 37 23 8 36 19 40 35
3 13 15 28 26 33 19 8 22 21 27 105 3 53 2 100 -2 104 -4 4 -20 3 -34 -2 -32
-12 -41 -2 -27 33 6 16 17 26 30 26 19 0 19 3 -11 83 -17 45 -32 90 -33 100
-3 19 -74 97 -90 97 -5 0 -21 11 -35 24 -39 37 -142 96 -165 95 -12 0 -31 -5
-43 -11z m375 -530 c19 -19 14 -38 -15 -49 -36 -13 -50 2 -35 36 13 27 31 32
50 13z m-53 -94 c26 -27 15 -48 -28 -50 -30 -2 -37 0 -37 16 0 49 32 66 65 34z
m-70 -80 c23 -23 14 -38 -29 -45 -43 -7 -55 6 -36 40 13 25 42 27 65 5z m-102
-57 c10 -6 20 -29 24 -50 l6 -39 -41 29 c-27 18 -41 36 -42 51 0 25 25 30 53
9z m-69 -6 c3 -5 -4 -11 -16 -14 -27 -8 -79 3 -72 14 7 12 81 12 88 0z"/>
</g>
</svg>
