<?xml version="1.0" encoding="utf-8"?>
<!-- Generator: Adobe Illustrator 21.0.0, SVG Export Plug-In . SVG Version: 6.00 Build 0)  -->
<svg version="1.1" id="Layer_1" xmlns="http://www.w3.org/2000/svg" xmlns:xlink="http://www.w3.org/1999/xlink" x="0px" y="0px"
	 viewBox="0 0 763 983" style="enable-background:new 0 0 763 983;" xml:space="preserve">
<style type="text/css">
	.st0{fill:#FDFDFD;}
	.st1{fill:#33A0B2;}
	.st2{enable-background:new    ;}
	.st3{font-family:'ArialMT';}
	.st4{font-size:12px;}
	.st5{font-size:48px;}
	.st6{fill:#FFFFFF;}
	.st7{fill:#FDFEFE;}
</style>
<g>
	<title>Layer 1</title>
	<g>
		<path class="st0" d="M1,974C1,653,1,332,1,11c1.5-1.3,3.3-1.5,5.1-1.6c2.2-0.1,4.3,0,6.5,0c219.8,0,439.6,0,659.4,0
			c2.5,0,5-0.1,7.5,0.1c4.8,0.4,6.4,2,6.9,6.8c0.2,2.2,0.2,4.3,0.2,6.5c0,299.3,0,598.6,0,897.9c0,12.4-2.1,24.2-9.6,34.5
			c-10.1,13.9-24.3,19.7-41,20.4c-1.5,0.1-3,0-4.5,0c-207,0-413.9,0-620.9,0C7.4,975.6,3.9,976.3,1,974z"/>
		<path class="st1" d="M762,194c-2.1,3.2-2,7.2-3.2,10.7c-3.3,10.2-9.6,18.1-18.1,24.5c-8.4,6.3-17.7,11.3-25.7,18.1
			c-9.8,8.3-16.4,18.6-21,30.5c-0.9,2.4-0.8,4.9-0.8,7.4c0,210.9,0,421.8,0,632.7c0,7.6,0.5,15.3-1.6,22.8
			c-6.2,22-20.4,35.7-42.9,40.5c-0.6,0.1-1.1,0.6-1.6,0.9c-212.7,0-425.3,0-638,0c-8,0-8,0-8-8c2.3-0.1,4.6-0.4,6.9-0.4
			c209.1,0,418.3,0,627.4,0c24.8,0,43.2-14,48.1-36.7c0.8-3.9,1.1-7.9,1.2-11.9c0.1-302.5,0-604.9,0.1-907.4c0-5-1.2-6.4-6.4-6.4
			C454.9,11.4,231.5,11.4,8,11.4c-2.3,0-4.6-0.2-6.9-0.4c0-8,0-8,8-8c243.3,0,486.7,0,730,0c12.5,1.6,21.4,10.5,23,23
			C762,82,762,138,762,194z"/>
		<text transform="matrix(6.123234e-17 1 -1 6.123234e-17 707.8242 2.7749)" class="st2"><tspan x="0" y="0" class="st3 st4">  </tspan><tspan x="6.7" y="0" class="st3 st5">  </tspan><tspan x="33.3" y="0" class="st6 st3 st5">Legend</tspan><tspan x="193.5" y="0" class="st3 st4">     </tspan></text>
	</g>
	<path class="st7" d="M0,0"/>
</g>
</svg>
