<?xml version="1.0" encoding="utf-8"?>
<!-- Generator: Adobe Illustrator 25.3.1, SVG Export Plug-In . SVG Version: 6.00 Build 0)  -->
<svg version="1.1" id="Layer_1" xmlns="http://www.w3.org/2000/svg" xmlns:xlink="http://www.w3.org/1999/xlink" x="0px" y="0px"
	 viewBox="0 0 35 28" style="enable-background:new 0 0 35 28;" xml:space="preserve">
<style type="text/css">
	.st0{fill:#83DE4D;}
</style>
<path class="st0" d="M2.6,27.5h13.1V15.1H9.2v-1.5c0-4.5,1.8-6.8,5.3-6.8V0.5c-4.6,0-8.1,1.4-10.5,4.2c-2.4,2.8-3.6,6.4-3.6,11
	C0.5,19.5,1.2,23.5,2.6,27.5L2.6,27.5z M21.5,27.5h13.1V15.1h-6.3v-1.5c0-4.5,1.7-6.8,5.2-6.8V0.5c-4.6,0-8.1,1.4-10.5,4.2
	c-2.4,2.8-3.5,6.4-3.5,11C19.5,19.5,20.1,23.4,21.5,27.5L21.5,27.5z"/>
</svg>
